<?xml version="1.0" encoding="utf-8"?>
<!-- Generator: Adobe Illustrator 26.1.0, SVG Export Plug-In . SVG Version: 6.00 Build 0)  -->
<svg version="1.1" id="Layer_1" xmlns="http://www.w3.org/2000/svg" xmlns:xlink="http://www.w3.org/1999/xlink" x="0px" y="0px"
	 viewBox="0 0 300 300" style="enable-background:new 0 0 300 300;" xml:space="preserve">
<style type="text/css">
	.st0{fill:#406FF4;}
	.st1{fill:#2ED67B;}
	.st2{fill:#5756D6;}
	.st3{fill:#CA42F4;}
	.st4{fill:#F2C532;}
	.st5{fill:#919191;}
	.st6{fill:#F7776D;}
</style>
<g>
	<g>
		<path class="st2" d="M229.2,242.19c-0.29-0.67-0.56-1.06-0.79-1.4c-0.7-0.96-1.29-1.54-1.8-2.06l-0.87-0.87
			c-0.99-0.98-1.93-1.91-2.7-2.81c-0.97-1.12-1.43-2.05-1.5-2.39c-0.03-0.13-0.03-0.16-0.04-0.13l0.85-1.47
			c3.22-5.7,5.22-12.23,6.31-20.54c0.79-6.19,1.03-12.94,0.71-20.64c-0.27-6.46-0.91-13.09-1.97-20.25
			c-1.83-12.5-4.57-25.4-8.39-39.44c-3.06-11.26-6.6-22.44-10.54-33.22c-0.09-0.79-0.4-1.62-0.88-2.4l-0.39-1.08
			c-0.18-0.5-0.36-1.01-0.55-1.51l-1.03,0.34c-0.13-0.11-0.26-0.22-0.39-0.32c1.09-0.8,2.07-1.7,2.92-2.7c1.68-2,2.74-4.4,3-6.74
			c0.12-1.04,0.08-1.8,0.05-2.47c-0.01-0.27-0.03-0.53-0.03-0.83l-0.1-2.88c-0.13-3.83-0.28-7.66-0.47-11.49
			c0.12-2,0.21-4.35,0.01-6.74c-0.11-1.37-0.33-2.56-0.67-3.66c-0.55-1.69-1.36-2.87-2.5-3.63c-1.17-0.77-2.81-0.97-4.3-0.77
			c-1.27,0.17-2.42,0.52-3.44,0.83l-0.33,0.1c-1.28,0.39-2.49,0.76-3.74,1.03c-6.17-0.53-12.66-0.91-20.42-1.18
			c-8.36-0.32-16.76-0.39-23.87-0.41c-7.54,0.03-15.65,0.11-23.86,0.42c-8.07,0.28-14.78,0.67-21.1,1.23
			c-1.37-0.23-2.73-0.5-4.11-0.82c-0.39-0.07-0.77-0.16-1.15-0.25c-1.6-0.36-3.37-0.7-5.17-0.38c-1.34,0.26-2.65,1.29-3.31,2.61
			c-0.58,1.08-0.87,2.18-1.1,3.23c-0.41,2.02-0.56,3.99-0.69,6.03l-0.71,17.33c-0.06,1.1-0.08,2.37,0.16,3.51
			c0.23,1.25,0.66,2.45,1.26,3.56c1.19,2.18,2.91,4.02,5.11,5.49c-0.38,0.25-0.73,0.5-1.05,0.74c0.05-0.18,0.1-0.35,0.15-0.53
			l-1.94-0.64c-4,10.52-7.65,21.57-11.16,33.78c-3.64,12.82-6.35,24.17-8.3,34.69c-2.58,13.76-3.84,25.13-3.95,35.79
			c-0.06,7.06,0.37,12.91,1.38,18.42c1.25,6.67,3.31,12.09,6.3,16.57c-0.26,1.91-1.07,3.99-2.28,6.68l-0.09,0.21
			c-0.32,0.75-0.68,1.59-1,2.71c-0.18,0.68-0.35,1.44-0.34,2.46c-0.02,1.21,0.48,2.96,1.64,4.14c1.06,1.11,2.15,1.55,3.09,1.84
			c0.83,0.24,1.51,0.33,2.14,0.39c0.86,0.06,1.37,0,2.12,0.06l60.72,0.24c3.57,0.02,7.14,0.03,10.72,0.03
			c5.66,0,11.32-0.02,16.98-0.04l51.08-0.17c0.51-0.01,1.14-0.02,1.97-0.16c0.41-0.07,0.93-0.17,1.69-0.5
			c0.19-0.08,0.4-0.18,0.66-0.34c0.24-0.14,0.48-0.3,0.75-0.55c0.52-0.43,1.18-1.24,1.51-2.25
			C229.94,244.18,229.49,242.98,229.2,242.19z M95.95,82.09c-0.18-0.64-0.21-1.23-0.24-2.22L95.05,62.6
			c-0.03-1.78-0.02-3.68,0.19-5.48c0.26-2.05,0.71-3.07,1.48-3.3c0.41-0.12,0.9-0.18,1.5-0.18c0.75,0,1.54,0.09,2.39,0.19
			c0.41,0.05,0.82,0.09,1.2,0.13c0.58,0.06,16,1.57,25.63,1.91c8.11,0.31,16.26,0.38,23.87,0.42c7.53-0.03,15.63-0.1,23.86-0.41
			c9.57-0.33,24.42-2.14,24.68-2.19l0.53-0.1c1.06-0.2,2.05-0.38,3.01-0.43l0.32-0.01c0.78,0,1.37,0.15,1.71,0.43
			c1,0.84,1.18,2.79,1.23,4.76c0.02,2.2-0.23,4.41-0.5,6.49c-0.19,3.85-0.34,7.7-0.47,11.56l-0.13,3.62
			c-0.02,0.6-0.04,1.34-0.14,1.71c-0.25,1.28-0.9,2.51-1.88,3.56c-1.23,1.31-2.96,2.34-5.02,2.98c-0.69-0.29-1.38-0.56-2.1-0.84
			c-4.63-1.61-9.59-2.85-15.18-3.77c-8.73-1.43-17.84-2.13-27.83-2.13c-0.96,0-1.92,0.01-2.89,0.02c-11,0.17-21.02,1.14-30.62,2.94
			c-5.45,1.03-10.38,2.34-15.09,4.01l-0.47,0.18c-0.07-0.01-0.14-0.02-0.23-0.04c-3.23-0.65-5.98-2.39-7.36-4.67
			C96.41,83.4,96.14,82.78,95.95,82.09z M212.94,234.43c0.61,2.84,1.98,4.67,3.13,6.15l-72.03-0.15l-40,0.11l-19.79,0.12
			c1.2-2.88,2.65-6.45,2.63-10.58l-0.01-1.52l-0.91-1.15c-2.71-3.43-4.69-8.13-6.05-14.39c-1.05-4.88-1.63-10.38-1.78-16.82
			c-0.11-5.31,0.08-10.98,0.6-17.32c0.42-5.51,1.05-11.19,1.93-17.38c1.61-11.1,3.78-22.74,6.43-34.61
			c2.17-9.71,4.51-19.21,6.97-28.23l0.03-0.23c0.44-0.58,1.07-1.09,1.98-1.56c0.88-0.48,1.89-0.89,3.17-1.29
			c2.22-0.67,4.58-1.2,7.06-1.58c4.97-0.86,10.11-1.28,14.65-1.64c8.8-0.67,18.24-1.06,29.7-1.23c2.85-0.03,5.71-0.06,8.56-0.06
			c7.85,0,14.77,0.16,21.13,0.5c4.54,0.27,9.69,0.58,14.63,1.4c2.6,0.39,4.86,0.92,6.91,1.62c1.29,0.46,2.19,0.9,2.96,1.46
			c0.46,0.31,0.82,0.66,1.08,1.05l0.35,1.27c2.87,10.45,5.56,21.55,8,32.96c3.11,14.93,5.13,27.37,6.35,39.14
			c1.14,11.83,2.01,25.7-0.07,38.87c-1.2,7.25-3.06,12.93-5.69,17.36l-0.76,1.22c-0.09,0.14-0.12,0.19-0.3,0.51
			c-0.23,0.44-0.39,0.81-0.53,1.19C212.73,231.08,212.61,232.83,212.94,234.43z"/>
		<path class="st2" d="M168.7,79.05h-38.23c-5.54,0-10.05-4.51-10.05-10.05c0-5.54,4.51-10.05,10.05-10.05h38.23
			c5.54,0,10.05,4.51,10.05,10.05C178.75,74.55,174.24,79.05,168.7,79.05z M130.47,63.25c-3.17,0-5.75,2.58-5.75,5.75
			c0,3.17,2.58,5.75,5.75,5.75h38.23c3.17,0,5.75-2.58,5.75-5.75c0-3.17-2.58-5.75-5.75-5.75H130.47z"/>
		<path class="st2" d="M174.07,116.69L174.07,116.69L174.07,116.69c-0.02-0.01-0.03-0.01-0.04-0.02c-6.74-3.7-14.52-5.65-22.51-5.65
			c-4.78,0-9.5,0.69-14.03,2.06c-12.24,3.57-23.01,12.02-29.55,23.19c-3.34,5.68-5.61,12.05-6.56,18.4
			c-0.98,6.7-0.66,13.54,0.94,19.79c1.73,6.7,4.74,12.94,8.73,18.05c4.16,5.33,9.48,9.85,15.41,13.05
			c5.98,3.15,12.69,5.09,19.4,5.59c1.1,0.08,2.2,0.12,3.31,0.12c5.53,0,11.1-0.96,16.55-2.86c6.11-2.16,11.99-5.68,16.99-10.18
			c4.76-4.32,8.8-9.72,11.67-15.63c5.68-11.62,6.76-25.27,2.97-37.45C193.61,132.83,185.13,122.46,174.07,116.69z M196.15,163.67
			c-0.9,5.91-3.02,11.62-6,16.66c-6.02,10.22-15.82,17.76-26.8,20.94c-10.94,3.27-22.98,2.15-32.85-3.27
			c-9.98-5.22-17.56-14.63-20.91-25.54c-0.19-0.6-0.31-1.21-0.48-1.82c0.44,0.6,0.88,1.11,1.28,1.5
			c20.76,20.35,22.72-16.51,22.72-27.68c0-7.51,8.04-7.51,8.04-7.51c-10.94-5.66-15.89,2.46-19.93,14.45
			c-1.38,4.09-11.92,7.2-13.61,9.34c-0.3-7.53,1.2-15.21,4.56-22.16c2.56-5.31,6.12-10.2,10.55-14.24
			c4.44-4.01,9.66-7.25,15.38-9.27c5.71-2,11.86-2.95,17.96-2.51c5.16,0.38,10.25,1.69,14.98,3.81c0.85,0.4,1.72,0.77,2.54,1.22
			c5.38,2.93,10.14,6.97,13.9,11.79c3.75,4.83,6.36,10.48,7.86,16.34C196.83,151.61,197.03,157.76,196.15,163.67z"/>
		<path class="st2" d="M145.72,152.77c3.08-8.05-7.11-6.66-9.7-1.97l0.65-0.64C133.67,156.5,143.85,157.65,145.72,152.77z"/>
		<path class="st2" d="M154.3,157.9c7.62-2.92-0.83-9.68-5.71-8.95l0.22-0.61C144.91,151.31,149.42,159.76,154.3,157.9z"/>
		<path class="st2" d="M177.27,154.84c-3.83-3.15-8.24-17.58-13.28-13.12c-1.4-6.61-8.27-12.2-18.31-5.43
			c30.46-5,13.01,41.87-9.67,53.88c18.45-7.97,27.83-20.17,28.97-27.26c1,11.57,4.08,18.69,16.15,14.14
			c7.96-3,13.38-11.57,12.15-20.04C187.71,158.65,182.26,158.94,177.27,154.84z"/>
		<path class="st2" d="M143.6,167.43c2.85,6.57,8.86,6.08,13.69-3.36c-1.81,3.38-7.93,3.89-9.83,2.46c1.15-2.31,2.74-4.57,1.25-6.83
			c-2.46-3.74-7.22,0-6.6,4.02v-1.29c0.14,0.86,0.3,1.74,0.52,2.58c-2.26,0.54-2.26,0.54-7.03-4.93
			C136.02,174,143.56,167.34,143.6,167.43z"/>
	</g>
</g>
</svg>
