<?xml version="1.0" encoding="utf-8"?>
<!-- Generator: Adobe Illustrator 26.1.0, SVG Export Plug-In . SVG Version: 6.00 Build 0)  -->
<svg version="1.1" id="Layer_1" xmlns="http://www.w3.org/2000/svg" xmlns:xlink="http://www.w3.org/1999/xlink" x="0px" y="0px"
	 viewBox="0 0 300 300" style="enable-background:new 0 0 300 300;" xml:space="preserve">
<style type="text/css">
	.st0{fill:#406FF4;}
	.st1{fill:#2ED67B;}
	.st2{fill:#5756D6;}
	.st3{fill:#CA42F4;}
	.st4{fill:#F2C532;}
	.st5{fill:#919191;}
	.st6{fill:#F7776D;}
</style>
<g>
	<g>
		<path class="st1" d="M244.98,166.73c4.17,4.95,5.74,11.3,4.72,18.89c-2.89,21.44-26.23,31.83-46.67,32.45
			c-9.91,0.3-18.31-2.82-27.2-6.11c-8.84-3.26-17.96-6.64-30.3-7.64c-19.38-1.6-32.94,0.53-43.77,15.6
			c2.78,6.25-2.62,10.79-7.69,7.01c-1.62,3.73-2.13,8.06-1.27,11.2c0.97,3.52,1.64,13.57-7.78,9.72
			c-3.82,16.11-22.64,14.58-30.39,5.63c-7.01-8.08-6.37-23.03,4.12-26.53c1.64-0.56,5.63,3.5,4.86,7.45c0,0-3.06,3.5-2.62,7.48
			c0.69,6.27,6.04,13.19,15.28,5.63c11.32-9.31-1.67-25.56-10.86-19.95c-2.2-0.28-4.84-3.82-3.82-5.35
			c6.32-9.42,19.1-0.51,26.53-2.62c-5.39-8.91,0-11.34,6.34-7.45c13.4-17.43,30.58-20.02,51.92-18.26
			c13.77,1.11,24.03,4.91,33.08,8.24c8.26,3.06,15.37,5.67,23.24,5.46c13.5-0.39,34.4-6.94,36.6-23.36
			c0.62-4.61-0.14-8.13-2.34-10.74c-4.17-4.95-12.82-6.3-19.35-6.55c-14.88-0.58-28.01,3.84-41.9,8.54
			c-20.42,6.9-41.55,14.03-70.26,6.55c-16.67-4.35-28.01-15.7-31.18-31.11c-3.31-16.25,2.82-34.28,15.44-46.71
			c-17.96-33.54,27.04-50.33,60.83-60.81c35.53-11.02,71.95,4.61,81.37,34.93c9.4,30.3-10.09,58.43-58.61,80.51
			c-38.03,17.32-60.02-19.58-77.76-45.6c-9,9.88-13.45,23.61-11,35.58c2.36,11.53,10.72,19.72,23.54,23.08
			c25.69,6.69,44.42,0.37,64.26-6.34c14.19-4.79,28.84-9.75,45.65-9.1C230.58,156.94,239.65,160.41,244.98,166.73z M177.87,143.9
			c36.39-16.02,58.84-40.02,50.3-67.57c-8.4-27.11-41.55-41-73.87-30.97c-30.72,9.54-49.12,21.53-54.75,35.67
			c-3.4,8.57,7.45,20.19,15.09,30.05C142.36,146.8,145.76,160.25,177.87,143.9z"/>
		<path class="st1" d="M204.37,59.22c9.65,7.76,14.61,21.25,12.36,33.84c-1.71,9.65-7.41,16.67-15.63,19.21
			c-1.04,0.32-2.13,0.56-3.24,0.74c-3.61,0.56-6.97-0.46-9-2.73c-4.7-5.25-5.93-10.46-7.11-15.49c-0.25-1.13-0.53-2.29-0.86-3.52
			c-2.73-10.21-5.93-11.94-8.38-12.34c-10.16-1.6-17.11-7.52-17.66-15.14c-0.49-6.83,4.44-12.87,12.59-15.39
			c1.06-0.32,2.18-0.62,3.36-0.83C187.89,44.41,200.72,55.03,204.37,59.22z M194.98,110.85c17.96-2.78,19.03-31.46,3.22-43.57
			c-0.19-0.23-11.41-13.19-28.29-10.05c-15.49,2.87-14.49,17.04,1.55,19.54c7.69,1.2,11.09,8.63,13.24,16.71
			c1.74,6.44,2.04,11.41,6.64,16.55C192.13,110.91,193.82,111.03,194.98,110.85z"/>
	</g>
</g>
</svg>
