<?xml version="1.0" encoding="utf-8"?>
<!-- Generator: Adobe Illustrator 26.1.0, SVG Export Plug-In . SVG Version: 6.00 Build 0)  -->
<svg version="1.1" id="Layer_1" xmlns="http://www.w3.org/2000/svg" xmlns:xlink="http://www.w3.org/1999/xlink" x="0px" y="0px"
	 viewBox="0 0 300 300" style="enable-background:new 0 0 300 300;" xml:space="preserve">
<style type="text/css">
	.st0{fill:#406FF4;}
	.st1{fill:#2ED67B;}
	.st2{fill:#5756D6;}
	.st3{fill:#CA42F4;}
	.st4{fill:#F2C532;}
	.st5{fill:#919191;}
	.st6{fill:#F7776D;}
</style>
<g>
	<g>
		<path class="st6" d="M144.6,192.49c10.64-5.61,21.37-11.07,31.93-16.85c21.21-11.39,42.25-23.1,62.85-35.7
			c-22.46,8.86-44.48,18.61-66.35,28.68c-10.97,4.95-21.78,10.22-32.68,15.34l-8.04,3.88c-2.1,0.94-4.55,1.02-7,0.23
			c-2.45-0.78-4.86-2.43-6.8-4.64c-0.97-1.11-1.83-2.35-2.56-3.69l-2.57-5.2l-2.64-5.29c-0.53-1.17-1.08-2.75-1.35-4.15
			c-0.6-2.89-0.45-5.8,0.39-8.22c0.84-2.44,2.39-4.35,4.39-5.45l7.95-4.08c10.64-5.62,21.37-11.06,31.93-16.84
			c21.2-11.39,42.25-23.1,62.85-35.71c-22.47,8.85-44.5,18.6-66.36,28.66c-10.97,4.95-21.78,10.22-32.68,15.34
			c-2.76,1.3-5.34,2.57-8.19,3.99c-3.3,1.74-5.89,4.87-7.31,8.84c-1.43,3.96-1.71,8.73-0.76,13.53c0.09,0.46,0.2,0.9,0.31,1.35
			c-9.91,10.15-24.98,18.29-35.98,24.24c-13.35,7.22-17.85,9.65-15.19,15c2.62,5.24,7.38,3.16,23.18-3.74
			c12.21-5.33,28.94-12.64,37.13-11.32l0.7,0.11l0.6-0.27c0.57-0.25,1.09-0.49,1.63-0.74c3.22,3.54,7.11,6.11,11.04,7.33
			c4.01,1.26,8.09,1.07,11.46-0.51C139.34,195.22,141.9,193.91,144.6,192.49z M107.99,180.61c0.46,0.9,0.83,1.67,1.44,2.82
			c-6.87-0.64-16.89,2.66-26.74,6.64c7.68-4.53,15.65-9.86,22.05-15.97c0.64,1.31,1.25,2.51,1.89,3.82L107.99,180.61z"/>
		<path class="st6" d="M230.01,99.69c1.79,1.54,3.32,3.36,4.55,5.33c0.64,1.04,1.12,1.92,1.68,3.18l2.01,4.14l2.08,4.09
			c0.71,1.31,1.07,2.1,1.52,3.26c0.82,2.18,1.36,4.49,1.51,6.84c0.32,4.72-0.85,9.49-3.99,13.43c5.11-0.08,9.39-4.66,10.36-11.15
			c0.54-3.22,0.25-6.9-0.74-10.5c-0.46-1.72-1.32-3.78-1.99-5.19l-2.01-4.13l-2.1-4.09c-0.79-1.49-1.83-3.28-2.95-4.71
			c-2.28-2.97-5.05-5.4-7.94-6.91c-5.76-3.14-11.99-2.48-15.13,1.53C221.92,94.67,226.44,96.59,230.01,99.69z"/>
		<path class="st6" d="M172.76,162.66c-0.31-0.09-0.59-0.31-0.75-0.62l-13.26-26.6c-0.14-0.29-0.17-0.62-0.06-0.92
			c0.1-0.3,0.32-0.55,0.61-0.7l61.72-30.74c0.59-0.3,1.32-0.06,1.62,0.54l13.25,26.6c0.14,0.29,0.17,0.62,0.06,0.92
			c-0.1,0.3-0.32,0.55-0.61,0.7l-61.71,30.74C173.34,162.72,173.04,162.74,172.76,162.66z M161.45,135.44l12.18,24.44l59.55-29.67
			l-12.18-24.44L161.45,135.44z M202.86,136.3c-0.21-0.06-0.4-0.17-0.55-0.34c-0.78-0.84-1.81-2.58-2.48-3.94
			c-1.04-2.08-1.46-3.93-1.27-5.5c0.2-1.62,1.09-2.91,2.5-3.61c0.99-0.5,2.06-0.85,3.58-1.18l5.91-1.24l-0.7-1.4
			c-0.17-0.33-0.17-0.72-0.01-1.05c0.16-0.34,0.46-0.58,0.82-0.66l4.13-0.93c0.54-0.12,1.1,0.14,1.35,0.64l1,2.01l3.01-0.64
			c0.46-0.1,0.94,0.08,1.22,0.47l4.45,6.06c0.24,0.33,0.3,0.76,0.15,1.14c-0.14,0.38-0.47,0.66-0.87,0.75l-3.69,0.81l1.65,3.31
			c0.17,0.33,0.17,0.72,0.01,1.06c-0.16,0.34-0.47,0.58-0.84,0.65l-4.15,0.88c-0.54,0.11-1.08-0.15-1.33-0.64l-1.92-3.86l-5.44,1.11
			c-0.86,0.17-1.59,0.39-1.97,0.58c-0.16,0.11-0.22,0.32,0.08,0.92c0.27,0.55,0.57,1.14,0.9,1.66c0.21,0.32,0.25,0.73,0.11,1.09
			c-0.14,0.36-0.44,0.63-0.81,0.73l-4.19,1.13C203.29,136.36,203.07,136.36,202.86,136.3z M212.69,119.39l0.71,1.42
			c0.17,0.33,0.17,0.73,0.01,1.06c-0.16,0.34-0.47,0.58-0.84,0.65l-7.43,1.56c-1.32,0.29-2.19,0.57-3,0.98
			c-0.7,0.35-1.08,0.92-1.19,1.75c-0.13,1.08,0.22,2.51,1.04,4.14c0.52,1.05,1.15,2.12,1.65,2.82l1.94-0.52
			c-0.08-0.16-0.16-0.32-0.24-0.48c-1.35-2.71,0.42-3.86,1-4.15c0.74-0.37,1.8-0.63,2.57-0.79l6.35-1.3
			c0.53-0.11,1.08,0.15,1.32,0.64l1.92,3.86l1.72-0.36l-1.64-3.3c-0.17-0.33-0.17-0.72-0.01-1.06c0.16-0.33,0.47-0.58,0.83-0.66
			l3.39-0.74l-2.89-3.94l-3.16,0.67c-0.54,0.11-1.08-0.15-1.33-0.64l-0.99-2L212.69,119.39z"/>
		
			<rect x="144.48" y="147.4" transform="matrix(0.895 -0.446 0.446 0.895 -53.4614 83.3525)" class="st6" width="11.76" height="15.73"/>
		
			<rect x="125.7" y="156.75" transform="matrix(0.8952 -0.4457 0.4457 0.8952 -59.5761 75.9011)" class="st6" width="11.72" height="15.69"/>
	</g>
</g>
</svg>
