<?xml version="1.0" encoding="utf-8"?>
<!-- Generator: Adobe Illustrator 26.1.0, SVG Export Plug-In . SVG Version: 6.00 Build 0)  -->
<svg version="1.1" id="Layer_1" xmlns="http://www.w3.org/2000/svg" xmlns:xlink="http://www.w3.org/1999/xlink" x="0px" y="0px"
	 viewBox="0 0 300 300" style="enable-background:new 0 0 300 300;" xml:space="preserve">
<style type="text/css">
	.st0{fill:#406FF4;}
	.st1{fill:#2ED67B;}
	.st2{fill:#5756D6;}
	.st3{fill:#CA42F4;}
	.st4{fill:#F2C532;}
	.st5{fill:#919191;}
	.st6{fill:#F7776D;}
</style>
<g>
	<g>
		<path class="st0" d="M250,88.41v123.16c0,7.68-6.25,13.95-13.95,13.95H63.95c-7.7,0-13.95-6.27-13.95-13.95V88.41
			c0-7.68,6.25-13.93,13.95-13.93h172.09C243.75,74.48,250,80.73,250,88.41z M243.61,211.45V84.34c0-0.07-0.02-0.16-0.02-0.23
			c-0.14-2.55-2.2-4.57-4.77-4.57H154.8H61.18c-2.64,0-4.8,2.16-4.8,4.8v127.11c0,2.64,2.16,4.8,4.8,4.8h177.64
			C241.45,216.25,243.61,214.09,243.61,211.45z"/>
		<path class="st0" d="M191.27,103.34c0,0.95-0.11,1.91-0.32,2.82c-2.25,4.09-6.59,6.86-11.55,6.86h-58.82
			c-4.98,0-9.32-2.77-11.57-6.84c-0.18-0.91-0.3-1.82-0.3-2.77c0-7.14,5.73-12.86,12.77-12.86h56.98
			C185.55,90.55,191.27,96.27,191.27,103.34z M184.3,103.41c0-3.3-2.61-5.89-5.82-5.89H121.5c-3.2,0-5.8,2.59-5.8,5.82
			c0,3.27,2.59,5.89,5.8,5.89h56.98C181.68,109.23,184.3,106.61,184.3,103.41z"/>
		<polygon class="st0" points="179.84,168.39 179.84,169.84 159.91,169.84 159.59,169.84 159.59,189.3 159.59,190.09 140.41,190.09 
			140.41,189.3 140.41,169.84 140.09,169.84 120.16,169.84 120.16,168.39 120.16,150.66 140.41,150.66 140.41,130.41 159.59,130.41 
			159.59,150.66 179.84,150.66 		"/>
	</g>
</g>
</svg>
