<?xml version="1.0" encoding="utf-8"?>
<!-- Generator: Adobe Illustrator 26.1.0, SVG Export Plug-In . SVG Version: 6.00 Build 0)  -->
<svg version="1.1" id="Layer_1" xmlns="http://www.w3.org/2000/svg" xmlns:xlink="http://www.w3.org/1999/xlink" x="0px" y="0px"
	 viewBox="0 0 300 300" style="enable-background:new 0 0 300 300;" xml:space="preserve">
<style type="text/css">
	.st0{fill:#406FF4;}
	.st1{fill:#2ED67B;}
	.st2{fill:#5756D6;}
	.st3{fill:#CA42F4;}
	.st4{fill:#F2C532;}
	.st5{fill:#919191;}
	.st6{fill:#F7776D;}
</style>
<g>
	<g>
		<path class="st4" d="M150.41,234.23l-67.5-0.34c-1.18-0.04-2.33-0.2-3.39-0.46c-3.95-0.95-7.61-3.11-10.59-6.23
			c-1.46-1.55-2.66-3.25-3.57-5.08c-0.48-0.96-0.88-1.95-1.19-2.95l-3.33-12.16l-5.2-19.3l-5.07-19.33
			c-0.62-2.18-0.68-4.5-0.13-6.48c0.32-1.18,0.84-2.3,1.55-3.33c-0.65-0.8-1.15-1.66-1.48-2.59c-0.73-1.84-0.69-4.33,0.16-6.57
			l5.6-17.58l7.51-22.95c0.15-0.46,0.31-0.93,0.51-1.49c0.39-1,0.87-1.94,1.44-2.84c2.01-3.1,5.03-5.67,8.72-7.42
			c1.76-0.83,3.59-1.42,5.44-1.77c0.96-0.18,2.01-0.29,2.95-0.32l11.7-0.13l15.67-0.13c0.23-1.67,0.7-3.31,1.38-4.84
			c6.61-14.9,21.28-24.16,38.28-24.16c17,0,31.67,9.26,38.29,24.17c0.69,1.53,1.15,3.17,1.38,4.83l28.13,0.26
			c0.96,0.01,1.96,0.1,2.94,0.26c1.89,0.32,3.74,0.89,5.49,1.69c3.71,1.71,6.75,4.26,8.78,7.36c0.64,1.01,1.08,1.88,1.45,2.85
			l0.79,2.4l6.87,22.22l5.35,17.8c0.77,2.17,0.75,4.6-0.09,6.57c-0.31,0.79-0.76,1.55-1.34,2.27c0.72,1.01,1.27,2.13,1.61,3.31
			c0.75,2.55,0.41,4.95-0.01,6.52l-4.79,19.36l-7.65,29.94c-0.14,0.53-0.27,1.06-0.44,1.64c-0.31,1.02-0.71,2.03-1.19,3.01
			c-0.92,1.84-2.12,3.54-3.58,5.08c-3.02,3.16-6.72,5.29-10.7,6.17c-1.13,0.25-2.24,0.38-3.31,0.4L150.41,234.23z M56.22,161.1
			c-0.48,0.64-0.84,1.35-1.04,2.08c-0.31,1.12-0.26,2.53,0.13,3.89l5.08,19.37l8.5,31.35c0.21,0.67,0.5,1.41,0.86,2.12
			c0.7,1.4,1.63,2.71,2.75,3.9c2.31,2.43,5.14,4.1,8.17,4.83c0.74,0.18,1.57,0.29,2.35,0.32l27.44,0.22l39.94,0.13l67.42-0.34
			c0.71-0.01,1.5-0.11,2.31-0.29c3.03-0.66,5.86-2.3,8.19-4.75c1.12-1.18,2.04-2.48,2.74-3.88c0.36-0.73,0.66-1.48,0.88-2.21
			c0.15-0.5,0.27-0.99,0.39-1.47l7.65-29.92l4.8-19.38c0.37-1.4,0.39-2.78,0.05-3.91c0,0,0,0,0,0c-0.22-0.75-0.61-1.48-1.12-2.13
			c-2.42,1.37-5.39,2.13-8.85,2.27l-169.88,0C61.53,163.16,58.6,162.43,56.22,161.1z M82.98,103.63c-0.55,0.01-1.07,0.05-1.66,0.14
			c-1.1,0.17-2.25,0.51-3.37,1c-2.3,1.01-4.22,2.52-5.41,4.26c-0.3,0.43-0.53,0.87-0.71,1.3c-0.15,0.36-0.31,0.82-0.48,1.27
			l-8.36,22.55l-6.6,17.39c-0.13,0.32-0.23,0.59-0.31,0.88c-0.03,0.13-0.09,0.34-0.11,0.56c-0.05,0.43-0.01,0.81,0.09,1.15
			c0.22,0.75,0.83,1.51,1.72,2.16c1.75,1.25,4.29,1.98,7.32,2.1l169.69,0c2.93-0.11,5.48-0.84,7.27-2.1c0.9-0.64,1.53-1.4,1.77-2.15
			c0.25-0.73,0.18-1.54-0.2-2.5l-6.34-17.56l-8.46-23.98c-0.14-0.33-0.41-0.82-0.68-1.21c-1.21-1.75-3.13-3.24-5.4-4.2
			c-1.12-0.47-2.26-0.79-3.4-0.95c-0.56-0.08-1.14-0.13-1.66-0.12l-30.2,0.28l-37.16,0.12L82.98,103.63z M114.21,98.99l10.83,0.03
			c-0.21-0.17-0.38-0.38-0.52-0.62c-0.44-0.75-0.45-1.68-0.02-2.45c4.38-9.88,14.11-16,25.4-16c11.29,0,21.02,6.13,25.4,15.99
			c0.45,0.76,0.45,1.69,0.01,2.45c-0.14,0.24-0.32,0.45-0.52,0.63l10.91-0.03c-0.52-0.45-0.87-1.09-0.86-1.79
			c0.01-1.75-0.39-3.62-1.12-5.26c-5.82-13.11-18.77-21.26-33.8-21.26c-15.03,0-27.98,8.14-33.8,21.24
			c-0.73,1.64-1.13,3.51-1.12,5.27C114.97,97.9,114.68,98.54,114.21,98.99z M149.89,84.86c-8,0-15.04,3.69-19.13,9.83l19.54-0.05
			l18.7,0.05C164.87,88.52,157.86,84.86,149.89,84.86z"/>
		<path class="st4" d="M211.56,176.55l0.04,39.96c0,1.43-1.19,2.58-2.67,2.59c-1.48,0-2.68-1.15-2.68-2.58l-0.04-39.96
			c0-1.42,1.19-2.58,2.67-2.58C210.36,173.97,211.56,175.13,211.56,176.55z"/>
		<path class="st4" d="M93.82,176.66l0.04,39.95c0,1.42-1.19,2.58-2.67,2.58c-1.48,0-2.68-1.15-2.68-2.57l-0.03-39.95
			c0-1.43,1.19-2.59,2.67-2.59C92.62,174.08,93.82,175.23,93.82,176.66z"/>
		<path class="st4" d="M200.86,176.56l0.04,39.95c0,1.43-1.2,2.59-2.67,2.59c-1.48,0-2.67-1.15-2.68-2.58l-0.04-39.95
			c0-1.42,1.2-2.57,2.68-2.58C199.66,173.99,200.85,175.14,200.86,176.56z"/>
		<path class="st4" d="M190.15,176.57l0.04,39.95c0,1.43-1.2,2.59-2.68,2.59c-1.48,0-2.67-1.15-2.68-2.58l-0.04-39.95
			c0-1.42,1.2-2.57,2.68-2.58C188.95,174,190.15,175.15,190.15,176.57z"/>
		<path class="st4" d="M179.45,176.58l0.04,39.95c0,1.43-1.2,2.59-2.68,2.59c-1.48,0-2.67-1.15-2.68-2.58l-0.04-39.96
			c0-1.42,1.2-2.57,2.68-2.57C178.25,174.01,179.45,175.16,179.45,176.58z"/>
		<path class="st4" d="M168.74,176.59l0.04,39.95c0,1.43-1.2,2.59-2.68,2.59c-1.48,0-2.67-1.15-2.68-2.58l-0.04-39.95
			c0-1.42,1.2-2.58,2.68-2.58C167.54,174.02,168.74,175.17,168.74,176.59z"/>
		<path class="st4" d="M158.04,176.6l0.04,39.95c0,1.42-1.2,2.58-2.68,2.58c-1.48,0-2.67-1.15-2.68-2.57l-0.04-39.95
			c0-1.42,1.2-2.57,2.68-2.58C156.84,174.03,158.04,175.18,158.04,176.6z"/>
		<path class="st4" d="M147.34,176.61l0.04,39.95c0,1.42-1.2,2.57-2.68,2.58c-1.48,0-2.67-1.15-2.67-2.57l-0.04-39.95
			c0-1.43,1.2-2.58,2.68-2.58C146.14,174.04,147.33,175.19,147.34,176.61z"/>
		<path class="st4" d="M136.63,176.62l0.04,39.95c0,1.42-1.19,2.58-2.67,2.58c-1.48,0-2.68-1.15-2.68-2.57l-0.04-39.95
			c0-1.43,1.19-2.58,2.67-2.59C135.43,174.04,136.63,175.19,136.63,176.62z"/>
		<path class="st4" d="M125.93,176.63l0.04,39.95c0,1.42-1.19,2.58-2.67,2.58c-1.48,0-2.68-1.15-2.68-2.57l-0.04-39.95
			c0-1.43,1.19-2.59,2.67-2.59C124.73,174.05,125.93,175.2,125.93,176.63z"/>
		<path class="st4" d="M115.23,176.65l0.03,39.95c0,1.42-1.19,2.58-2.67,2.58c-1.48,0-2.68-1.15-2.68-2.57l-0.03-39.95
			c0-1.43,1.19-2.59,2.67-2.59C114.03,174.06,115.23,175.21,115.23,176.65z"/>
		<path class="st4" d="M101.84,174.07c1.48,0,2.68,1.15,2.68,2.58l0.04,39.95c0,1.42-1.19,2.58-2.67,2.58
			c-1.48,0-2.68-1.15-2.68-2.57l-0.04-39.95C99.17,175.23,100.37,174.07,101.84,174.07z"/>
	</g>
</g>
</svg>
