<?xml version="1.0" encoding="utf-8"?>
<!-- Generator: Adobe Illustrator 26.1.0, SVG Export Plug-In . SVG Version: 6.00 Build 0)  -->
<svg version="1.1" id="Layer_1" xmlns="http://www.w3.org/2000/svg" xmlns:xlink="http://www.w3.org/1999/xlink" x="0px" y="0px"
	 viewBox="0 0 300 300" style="enable-background:new 0 0 300 300;" xml:space="preserve">
<style type="text/css">
	.st0{fill:#406FF4;}
	.st1{fill:#2ED67B;}
	.st2{fill:#5756D6;}
	.st3{fill:#CA42F4;}
	.st4{fill:#F2C532;}
	.st5{fill:#919191;}
	.st6{fill:#F7776D;}
</style>
<g>
	<g>
		<path class="st3" d="M249.79,201.24c-0.36-1.95-1.23-3.52-2.44-4.42c-0.36-0.27-0.84-0.25-1.2,0c-1.22-0.52-2.62-0.56-4.42-0.09
			c-1.38,0.36-2.64,0.97-3.7,1.52c-2.04,1.12-4.05,2.52-6.15,4.27c-1.04,0.86-2.1,1.82-3.28,2.98l-21.83-17.18
			c0.03-0.08,0.05-0.17,0.08-0.25c0.95-3.4,1.35-7.12,1.2-11.07l-0.05-1.23c-0.01-0.3-0.15-0.57-0.39-0.76l-1.05-0.83
			c-5.06-3.99-10.17-7.93-15.27-11.87l-3.72-2.88c-0.53-0.41-34.09-26.69-62.19-48.91c0.1-0.22,0.2-0.42,0.3-0.62
			c0.45-0.93,0.84-1.73,1.24-3.02l0.09-0.3c0.37-1.23,0.75-2.51,0.84-3.9c0.37-5.13-2.41-6.87-4.04-7.43
			c-1.27-0.52-2.78-0.7-4.2-0.57c-1.84,0.16-3.5,0.73-4.6,1.15c-2.48,0.99-4.98,2.43-7.63,4.4c-0.18,0.13-0.36,0.27-0.55,0.42
			c-8.35-6.58-16.01-12.55-23.39-18.24c-5.26-4.08-10.55-8.12-15.85-12.14l-5.23-3.95c-3.56-2.69-7.12-5.39-10.72-8.04
			c-0.04-0.03-0.08-0.06-0.13-0.08c-0.02-0.01-0.04-0.01-0.06-0.02c-0.08-0.04-0.16-0.06-0.24-0.08c-0.03-0.01-0.06-0.02-0.09-0.03
			c-0.01,0-0.02,0.01-0.03,0c-0.13-0.01-0.27,0-0.4,0.05l-0.01,0c-0.1,0.04-0.2,0.09-0.29,0.16l0,0l-0.01,0
			c-0.08,0.06-0.14,0.14-0.19,0.22c-0.01,0.02-0.03,0.03-0.04,0.05v0c-0.07,0.11-0.11,0.24-0.13,0.37c0,0.01-0.01,0.02-0.01,0.03
			c0,0.03,0.01,0.06,0.01,0.09c0,0.09,0,0.18,0.02,0.27c0.01,0.02,0,0.04,0.01,0.06c0.01,0.05,0.03,0.1,0.05,0.14
			c1.69,3.77,3.41,7.52,5.19,11.34c0.06,0.14,0.25,0.34,0.37,0.43l19.78,16.32c6.31,5.15,12.64,10.27,18.99,15.38l-0.21,6.15
			c-0.01,0.32,0.13,0.63,0.39,0.83l1.49,1.19c-0.27,0.32-0.54,0.65-0.81,0.98c-3.91,4.98-6.81,9.71-8.88,14.47
			c-1.31,3.02-2.15,5.77-2.56,8.45c-0.25,1.87-0.27,3.33-0.06,4.73c0.23,1.65,0.9,3.2,1.8,4.25c1.16,1.74,2.91,2.66,5.06,2.66
			c1.33,0,2.45-0.35,2.93-0.5c1.21-0.37,2.43-0.9,3.97-1.73l0.82-0.45c0.49-0.26,0.78-0.42,1.3-0.78
			c3.09,2.6,10.47,8.37,18.26,14.46c7.61,5.96,15.48,12.12,18.92,14.99c2.6,2.14,5.2,4.29,7.8,6.44c4.54,3.75,9.07,7.51,13.65,11.21
			c2.31,1.87,4.61,3.75,6.91,5.63c4.87,3.97,9.74,7.95,14.66,11.87l1.04,0.84c0.23,0.19,0.55,0.26,0.83,0.2l1.21-0.24
			c3.88-0.75,7.41-1.99,10.51-3.68c0.49-0.27,0.97-0.56,1.44-0.85l21.31,17.04c-0.92,1.52-1.66,2.86-2.3,4.15
			c-1.22,2.45-2.12,4.73-2.74,7c-0.27,1.05-0.58,2.43-0.64,3.92c-0.04,1.18,0.02,2.92,1.01,4.4c0.19,0.29,0.52,0.45,0.85,0.45
			c0.01,0,0.03,0,0.04,0c0.21,0,0.4-0.08,0.56-0.19c1.46,0.83,3.08,1.04,4.23,1.04c0.01,0,0.21,0,0.21,0
			c1.64-0.03,3.12-0.4,4.39-0.78c2.47-0.83,4.84-2.04,7.24-3.69c4.03-2.78,7.66-6.28,11.12-10.68c3.33-4.29,5.93-8.76,7.72-13.3
			c1.05-2.67,1.7-5.23,2.02-7.84C250.02,204.27,250.08,202.79,249.79,201.24z M226,214.99l-23.52-18.81
			c0.79-0.68,1.5-1.49,2.11-2.42c0.24-0.36,0.45-0.72,0.63-1.06l23.67,18.63C228.35,212.83,227.33,214.12,226,214.99z
			 M169.22,191.07c-2.36-1.84-4.72-3.69-7.08-5.54c-4.73-3.72-9.49-7.39-14.26-11.06c-2.57-1.98-5.14-3.96-7.71-5.95l-4.44-3.39
			c-5.88-4.49-11.76-8.98-17.68-13.41c-4.94-3.72-9.9-7.41-14.89-11.08c0.37-0.3,0.74-0.6,1.1-0.91c3.67-3.12,7.26-6.95,10.98-11.72
			c0.77-1.02,1.52-2.05,2.26-3.09c0.42-0.6,0.78-1.19,1.18-1.79c0.57-0.85,1.16-1.7,1.69-2.55c0.9-1.45,1.73-2.89,2.51-4.35
			c2.87,2.32,5.97,4.79,9.17,7.35c-0.54,1.8-1.18,3.58-1.91,5.31c-1.08,2.51-2.42,5.09-4.24,8.12c-0.25,0.42-0.17,0.96,0.2,1.29
			c0.37,0.32,0.92,0.34,1.3,0.03c2.48-1.96,4.64-4.48,6.4-7.47c0.77-1.3,1.47-2.72,2.07-4.23c2.97,2.36,6,4.77,9.02,7.16
			c-0.55,1.84-1.18,3.62-1.89,5.3c-1.08,2.51-2.42,5.09-4.24,8.12c-0.25,0.42-0.17,0.96,0.2,1.29c0.37,0.33,0.92,0.34,1.3,0.04
			c2.48-1.96,4.64-4.48,6.4-7.47c0.77-1.3,1.46-2.69,2.07-4.24l9.06,7.15c-0.54,1.81-1.19,3.6-1.91,5.32
			c-1.07,2.5-2.42,5.08-4.24,8.12c-0.25,0.42-0.17,0.96,0.2,1.29c0.37,0.33,0.92,0.34,1.3,0.03c2.48-1.95,4.64-4.47,6.4-7.47
			c0.78-1.31,1.46-2.72,2.08-4.28c3.25,2.56,6.31,4.97,9.07,7.13c-0.54,1.8-1.19,3.61-1.94,5.38c-1.07,2.5-2.42,5.08-4.24,8.12
			c-0.25,0.42-0.17,0.96,0.2,1.29c0.37,0.33,0.92,0.34,1.3,0.04c2.48-1.96,4.63-4.47,6.4-7.47c0.79-1.33,1.49-2.76,2.1-4.35
			l4.65,3.66c0.4,0.31,0.76,0.6,1.12,0.88c1.54,1.21,2.69,2.11,3.29,2.59c-0.53,1.8-1.19,3.63-1.96,5.45
			c-1.07,2.5-2.42,5.08-4.24,8.12c-0.25,0.42-0.17,0.96,0.2,1.29c0.37,0.33,0.92,0.34,1.3,0.03c2.48-1.96,4.64-4.48,6.39-7.47
			c0.8-1.33,1.5-2.77,2.12-4.37c4.52,3.64,9.05,7.28,13.6,10.89c-0.04,2.69-0.39,5.18-1.03,7.42c-0.82,2.86-2.13,5.43-3.9,7.65
			c-3.07,3.94-7.75,6.78-13.54,8.22C178.09,197.99,173.66,194.53,169.22,191.07z M110.81,109.31c0.06,0.44,0.06,1.31-0.92,2.55
			c-1.02,1.28-2.21,1.99-2.98,2.35l-6.38-5.03c1.48-1.33,2.96-3.17,3.62-5.19c0.09,0.07,0.17,0.14,0.26,0.2L110.81,109.31z
			 M60.91,68.72l4.76,3.97c5.12,4.25,10.26,8.48,15.42,12.68c7.08,5.78,14.2,11.51,21.33,17.23c-0.91,1.43-2.08,1.96-3.57,2.36
			l0.07-3.28c0.01-0.32-0.14-0.62-0.39-0.82l-0.54-0.42c-6.73-5.27-13.47-10.52-20.25-15.74L57.6,69.34
			c-1.05-2.01-2.11-4.02-3.18-6.03C56.58,65.12,58.74,66.92,60.91,68.72z M98.88,139.08c-1.18,1.06-2.21,1.89-3.24,2.64
			c-1.05,0.78-2.12,1.44-3.16,1.96c-0.13,0.06-0.84,0.38-1.81,0.38c-1.64,0-2.98-0.92-3.96-2.72c-0.12-0.52-0.18-1.08-0.19-1.64
			c0-1.18,0.18-2.43,0.57-3.83c0.74-2.78,2-5.39,3-7.34c1.39-2.59,2.75-4.85,4.15-6.91c1.52-2.29,3.12-4.47,4.77-6.51
			c0.26-0.33,0.52-0.65,0.79-0.97l3.24,2.59c-4.68,6.57-9.69,14.56-8.41,17.06c0.68,1.33,2.51,1.14,4.9-1.06
			c6.66-5.47,16.15-19.49,16.67-20.81c0.05-0.25,0.14-0.48,0.23-0.7c0.04-0.09,0.07-0.19,0.11-0.3c0.26-0.72,0.47-1.7-0.4-2.79
			c-0.07-0.14-0.16-0.26-0.29-0.36l-0.16-0.12c-0.23-0.22-0.52-0.45-0.82-0.66l-4.7-3.7c1.77-1.5,3.9-3.19,6.36-4.49
			c1.24-0.68,2.42-1.15,3.59-1.42c0.4-0.09,0.84-0.15,1.32-0.18c2.23,0.56,3.78,1.32,3.65,5.17c-0.03,0.78-0.42,1.55-0.84,2.36
			c-0.16,0.3-0.31,0.6-0.46,0.92c-0.52,1.17-1.13,2.38-1.96,3.88c-0.23,0.12-0.41,0.33-0.49,0.59c-0.26,0.82-0.74,1.62-1.42,2.39
			c-0.15,0.16-0.18,0.41-0.18,0.64c-2.53,4.1-5.31,8.13-8.29,11.98c-3.34,4.36-6.64,8.16-10.07,11.61c-0.71,0.7-1.43,1.38-2.28,2.16
			l0.63,0.8L98.88,139.08z M213.25,236.65c0.23-1.03,0.57-2.06,1.06-3.17c0.92-2.19,2.08-4.22,3.19-6.08
			c0.71-1.16,1.45-2.3,2.21-3.43l1.33,1.07c0.29,0.23,0.69,0.29,1.03,0.14l1.06-0.45c1.76-0.74,5.04-2.11,7.62-5.36
			c3.81-4.81,3.47-7.52,3.1-8.53l0.08-0.46c0.06-0.37-0.08-0.74-0.37-0.97l-1.45-1.14c0.85-0.92,1.72-1.84,2.61-2.72
			c1.48-1.45,3.25-3.12,5.19-4.53c0.98-0.73,1.91-1.3,2.81-1.72c0.93-0.41,1.97-0.75,2.91-0.5c0.09,0.02,0.16,0.03,0.28,0.03
			c0.09,0,0.16-0.02,0.25-0.04c0.3,0.82,0.27,1.63,0.18,2.34c-0.15,1.04-0.45,2.11-0.9,3.2c-0.83,2.19-2,4.26-3.13,6.18
			c-2.18,3.66-4.82,7.47-8.07,11.62c-3.42,4.34-6.39,7.7-9.35,10.55c-1.61,1.53-3.35,3.12-5.34,4.38c-0.93,0.63-1.91,1.13-2.93,1.49
			c-0.79,0.27-1.51,0.41-2.21,0.41c-0.33,0-0.67-0.03-1.02-0.1c-0.11-0.02-0.21-0.02-0.31-0.01
			C213,238.21,213.08,237.49,213.25,236.65z"/>
	</g>
</g>
</svg>
